<?xml version="1.0" encoding="utf-8"?>
<!-- Generator: Adobe Illustrator 19.2.0, SVG Export Plug-In . SVG Version: 6.00 Build 0)  -->
<svg version="1.1" id="Layer_1" xmlns="http://www.w3.org/2000/svg" xmlns:xlink="http://www.w3.org/1999/xlink" x="0px" y="0px"
	 viewBox="0 0 29.8 33" style="enable-background:new 0 0 29.8 33;" xml:space="preserve">
<style type="text/css">
	.st0{fill:#430A30;}
	.st1{fill:#D84135;}
	.st2{fill:#FFFFFF;}
	.st3{fill:none;stroke:#FFFFFF;stroke-width:3;stroke-miterlimit:10;}
	.st4{fill:none;stroke:#FFFFFF;stroke-width:2;stroke-miterlimit:10;}
</style>
<g>
	<path class="st2" d="M15.4,32h1v0v-1h-1.2H1.9v1h1c0-2.3,0.5-3.9,1.2-5.2C5.2,25,6.9,23.9,8.7,23c0.9-0.4,1.7-0.8,2.5-1.2
		c0.8-0.4,1.5-0.8,2-1.5l0.1-0.2l0.4-2.1L13,17.7c-2.3-1.1-4-4-4-7.5C9,7.8,9.8,5.7,11,4.3C12.1,2.8,13.7,2,15.3,2
		c1.7,0,3.2,0.8,4.4,2.3c1.2,1.5,1.9,3.5,1.9,5.8c0,3.5-1.7,6.4-4,7.5L17,18l0.4,2.3l0.2,0.2c0.4,0.4,0.8,0.7,1.3,1
		c0.8,0.5,1.8,0.9,2.8,1.4c1.5,0.7,3,1.6,4.1,2.9c1.1,1.4,1.9,3.2,1.9,6.2h1v-1H15.4V32h1H15.4v1h14.3v-1c0-2.5-0.6-4.5-1.5-6.1
		c-1.4-2.4-3.4-3.7-5.3-4.6c-0.9-0.5-1.8-0.8-2.5-1.2c-0.7-0.3-1.2-0.7-1.4-1l-0.8,0.7l1-0.2l-0.2-1.3l-1,0.2l0.5,0.9
		c3-1.6,5-5.2,5-9.3c0-2.7-0.9-5.2-2.4-7.1c-1.5-1.8-3.6-3-5.9-3C13,0,10.9,1.2,9.4,3C7.9,4.9,7,7.4,7,10.1c0,4.1,2,7.8,5.1,9.3
		l0.5-0.9l-1-0.2l-0.2,1.2l1,0.2l-0.8-0.6c-0.1,0.2-0.4,0.4-0.7,0.6c-0.6,0.4-1.6,0.8-2.6,1.3c-1.6,0.8-3.4,1.7-4.9,3.4
		c-1.5,1.7-2.5,4.1-2.5,7.5v1h14.3h0.2V32l-1,0v0v1h1V32z"/>
</g>
</svg>
